<svg id="svg" version="1.1" width="400" height="397.73156899810965" viewBox="0 0 400 397.73156899810965" xmlns="http://www.w3.org/2000/svg" xmlns:xlink="http://www.w3.org/1999/xlink" ><g id="svgg"><path id="path0" d="M188.522 62.556 C 184.756 63.482,181.833 65.977,179.979 69.849 C 178.494 72.951,173.739 88.248,160.088 133.837 C 149.306 169.848,144.644 185.268,141.086 196.692 C 137.139 209.367,134.193 218.472,132.772 222.389 C 131.903 224.781,131.063 227.186,130.904 227.732 C 130.314 229.764,128.711 229.639,127.626 227.476 C 126.288 224.808,107.391 191.001,106.340 189.393 C 97.707 176.190,91.177 175.413,80.528 186.322 C 73.574 193.445,68.431 199.348,64.657 204.537 C 60.564 210.164,56.861 213.059,51.266 215.006 C 46.563 216.643,43.477 216.837,29.793 216.354 C 19.679 215.997,10.189 216.037,6.189 216.453 C 3.043 216.781,2.072 216.380,1.541 214.533 C 1.056 212.846,1.442 221.602,2.082 226.805 C 2.800 232.637,4.011 237.939,5.870 243.384 C 6.473 245.151,7.276 247.775,7.653 249.215 C 8.911 254.014,11.842 263.457,12.019 263.281 C 12.061 263.238,11.838 262.444,11.522 261.516 C 9.543 255.709,6.770 245.656,6.747 244.209 C 6.730 243.084,7.162 242.421,8.079 242.164 C 8.830 241.954,22.076 242.161,32.798 242.552 C 47.466 243.086,51.093 242.983,57.278 241.855 C 69.932 239.549,78.676 234.256,85.870 224.548 C 89.272 219.958,90.504 219.380,92.580 221.401 C 93.654 222.445,93.926 222.916,99.817 233.932 C 119.670 271.049,124.439 277.918,132.108 280.430 C 138.093 282.391,145.405 275.881,149.793 264.686 C 150.563 262.721,150.970 261.388,162.410 223.346 C 177.004 174.813,177.094 174.518,183.921 152.836 C 186.081 145.974,187.951 139.991,188.076 139.541 C 189.009 136.186,193.210 140.438,195.351 146.905 C 196.593 150.655,205.157 185.798,214.579 225.803 C 219.123 245.095,221.238 253.877,226.350 274.669 C 228.484 283.351,230.664 292.410,231.193 294.802 C 235.855 315.854,238.214 319.480,247.448 319.790 C 258.057 320.146,260.754 316.808,265.213 297.805 C 265.947 294.674,267.062 290.293,267.690 288.069 C 270.348 278.652,279.826 243.453,292.904 194.423 C 294.735 187.561,296.321 181.672,296.429 181.336 C 296.848 180.027,298.390 179.526,299.234 180.425 C 300.881 182.178,306.808 193.666,312.161 205.482 C 323.962 231.529,327.526 237.468,332.987 240.189 C 336.620 241.999,333.841 241.842,364.367 241.958 C 386.221 242.042,391.292 242.107,391.651 242.312 C 392.211 242.631,392.084 242.959,392.878 239.130 C 394.465 231.477,395.720 223.062,396.304 216.163 C 396.410 214.899,396.402 214.863,396.124 215.357 C 395.460 216.533,396.566 216.471,375.169 216.529 C 355.088 216.584,354.486 216.565,352.025 215.784 C 346.551 214.048,344.747 211.674,338.658 198.204 C 333.272 186.288,327.555 173.781,322.588 163.043 C 307.666 130.791,307.324 130.078,305.709 127.788 C 299.858 119.496,292.490 119.251,284.934 127.095 C 280.526 131.671,278.705 135.666,275.886 146.936 C 269.628 171.951,252.628 235.704,251.387 238.807 C 250.109 242.004,246.417 237.897,244.048 230.643 C 243.335 228.460,242.789 226.231,235.914 197.448 C 230.779 175.948,228.103 164.969,223.818 147.826 C 218.841 127.912,215.012 112.333,211.530 97.826 C 207.476 80.938,205.353 72.531,204.821 71.268 C 201.979 64.514,195.230 60.907,188.522 62.556 M12.145 263.752 C 12.193 263.882,12.381 264.441,12.563 264.993 C 12.744 265.546,12.926 265.965,12.967 265.924 C 13.063 265.828,12.283 263.516,12.155 263.516 C 12.102 263.516,12.097 263.622,12.145 263.752 M13.043 266.215 C 13.043 266.459,14.041 269.008,14.110 268.940 C 14.150 268.900,13.962 268.280,13.692 267.562 C 13.229 266.334,13.043 265.947,13.043 266.215 M14.299 269.564 C 14.367 269.824,14.580 270.377,14.773 270.793 C 14.966 271.209,15.068 271.338,15.001 271.078 C 14.934 270.819,14.721 270.266,14.528 269.850 C 14.335 269.433,14.232 269.305,14.299 269.564 " stroke="none" fill="#fbfbfb" fill-rule="evenodd"></path><path id="path1" d="M295.321 121.302 C 295.503 121.350,295.801 121.350,295.983 121.302 C 296.165 121.255,296.016 121.216,295.652 121.216 C 295.288 121.216,295.139 121.255,295.321 121.302 M188.724 138.652 C 188.500 138.809,188.230 139.322,188.103 139.833 C 187.980 140.330,186.317 145.671,184.407 151.701 C 177.710 172.854,177.449 173.711,162.674 222.845 C 158.036 238.268,153.520 253.282,152.638 256.209 C 149.211 267.580,147.117 271.861,142.766 276.394 C 136.597 282.821,131.349 282.408,124.194 274.931 C 119.575 270.104,115.077 262.592,100.100 234.688 C 92.748 220.990,92.553 220.694,90.776 220.484 C 89.402 220.322,88.337 221.294,85.255 225.529 C 76.237 237.920,60.697 243.939,40.313 242.936 C 34.024 242.626,23.559 242.365,14.872 242.302 L 7.721 242.250 7.239 242.808 C 5.441 244.891,13.414 268.716,21.532 285.519 C 22.560 287.648,23.347 289.451,23.279 289.527 C 23.212 289.602,23.254 289.608,23.373 289.540 C 23.627 289.395,23.877 289.922,23.695 290.216 C 23.627 290.327,23.656 290.365,23.760 290.301 C 23.938 290.191,24.811 291.781,24.761 292.125 C 24.749 292.212,24.885 292.391,25.064 292.522 C 25.266 292.670,25.331 292.852,25.236 293.006 C 25.139 293.164,25.158 293.207,25.288 293.127 C 25.479 293.009,25.831 293.678,25.746 293.998 C 25.726 294.076,25.808 294.140,25.929 294.140 C 26.051 294.140,26.100 294.190,26.040 294.250 C 25.979 294.311,26.096 294.527,26.299 294.730 C 26.502 294.933,26.617 295.181,26.555 295.281 C 26.493 295.381,26.538 295.463,26.654 295.463 C 26.770 295.463,26.813 295.548,26.749 295.652 C 26.684 295.756,26.727 295.841,26.843 295.841 C 26.959 295.841,27.002 295.927,26.937 296.032 C 26.872 296.136,26.952 296.273,27.114 296.335 C 27.276 296.397,27.361 296.524,27.303 296.617 C 27.246 296.710,27.294 296.786,27.410 296.786 C 27.526 296.786,27.569 296.871,27.505 296.975 C 27.440 297.079,27.483 297.164,27.599 297.164 C 27.715 297.164,27.758 297.250,27.693 297.355 C 27.628 297.460,27.694 297.591,27.839 297.647 C 27.985 297.702,28.103 297.852,28.103 297.980 C 28.103 298.598,34.060 307.958,37.810 313.233 C 71.367 360.438,123.874 390.990,180.246 396.112 C 208.338 398.665,234.409 396.091,257.372 388.500 C 323.316 366.700,367.596 322.603,388.832 257.584 C 392.451 246.504,393.366 242.300,392.102 242.565 C 392.027 242.581,391.727 242.495,391.434 242.375 C 391.039 242.212,384.365 242.155,365.536 242.154 C 338.335 242.154,337.964 242.142,335.066 241.185 C 328.275 238.943,324.921 233.781,312.419 206.333 C 306.421 193.166,304.569 189.442,300.898 183.176 C 299.221 180.313,299.072 180.151,298.106 180.151 C 296.791 180.151,296.977 179.601,291.980 198.312 C 277.273 253.381,270.968 276.797,268.215 286.578 C 267.381 289.542,266.026 294.813,265.204 298.292 C 260.812 316.879,257.889 320.429,247.351 319.967 C 238.298 319.571,235.810 315.853,231.376 296.091 C 230.634 292.782,228.582 284.206,226.816 277.032 C 220.905 253.014,219.312 246.392,213.063 219.849 C 205.231 186.587,196.464 150.650,195.330 147.164 C 193.568 141.747,190.306 137.544,188.724 138.652 M40.410 216.583 C 40.750 216.625,41.260 216.624,41.544 216.581 C 41.828 216.538,41.550 216.504,40.926 216.505 C 40.302 216.506,40.070 216.541,40.410 216.583 " stroke="none" fill="#44847c" fill-rule="evenodd"></path><path id="path2" d="M191.210 0.206 C 136.720 2.457,86.612 25.987,51.959 65.595 C 16.248 106.412,-0.725 152.857,0.945 205.187 C 1.219 213.757,1.522 215.483,2.878 216.185 C 3.529 216.521,3.187 216.527,10.586 216.056 C 14.319 215.818,21.712 215.897,30.802 216.272 C 45.892 216.894,51.089 216.039,57.215 211.927 C 60.315 209.847,61.695 208.380,66.035 202.552 C 70.681 196.315,81.372 184.780,84.979 182.114 C 91.766 177.098,95.979 177.360,101.540 183.145 C 105.397 187.158,105.660 187.586,118.267 210.311 C 124.433 221.427,128.559 228.669,128.825 228.843 C 129.458 229.258,130.217 229.010,130.529 228.284 C 131.110 226.933,134.338 217.695,135.471 214.138 C 141.194 196.173,146.118 180.079,156.711 144.709 C 177.159 76.438,178.942 70.809,181.113 67.675 C 187.369 58.640,200.781 60.767,205.019 71.466 C 205.552 72.813,207.947 82.374,212.285 100.473 C 213.855 107.023,218.237 124.844,222.023 140.076 C 229.438 169.912,230.506 174.294,238.091 206.049 C 240.835 217.538,243.381 227.980,243.748 229.254 C 245.396 234.977,248.173 239.698,249.891 239.698 C 251.205 239.698,250.800 240.932,257.367 216.919 C 262.738 197.278,268.836 174.173,273.633 155.293 C 277.038 141.889,277.654 139.598,278.382 137.640 C 283.218 124.627,293.534 118.049,301.236 123.067 C 305.255 125.686,305.885 126.769,315.805 148.148 C 326.681 171.588,330.667 180.271,338.562 197.732 C 343.668 209.023,344.034 209.698,346.361 212.078 C 348.415 214.178,350.900 215.536,353.875 216.182 C 355.932 216.629,394.155 216.563,395.079 216.111 C 396.734 215.301,396.950 213.683,397.105 200.927 C 398.482 87.346,304.303 -4.466,191.210 0.206 " stroke="none" fill="#24544c" fill-rule="evenodd"></path><path id="path3" d="M201.323 66.068 C 201.676 66.432,202.007 66.730,202.059 66.730 C 202.111 66.730,201.865 66.432,201.512 66.068 C 201.160 65.704,200.828 65.406,200.776 65.406 C 200.725 65.406,200.971 65.704,201.323 66.068 M303.308 124.953 C 303.714 125.369,304.089 125.709,304.141 125.709 C 304.193 125.709,303.903 125.369,303.497 124.953 C 303.091 124.537,302.716 124.197,302.664 124.197 C 302.612 124.197,302.902 124.537,303.308 124.953 M285.249 126.607 L 284.216 127.694 285.302 126.661 C 286.312 125.701,286.476 125.520,286.336 125.520 C 286.306 125.520,285.817 126.009,285.249 126.607 M81.186 185.491 L 79.868 186.862 81.238 185.544 C 82.511 184.319,82.695 184.121,82.556 184.121 C 82.528 184.121,81.911 184.738,81.186 185.491 M61.059 208.790 C 60.599 209.258,60.266 209.641,60.318 209.641 C 60.370 209.641,60.788 209.258,61.248 208.790 C 61.707 208.322,62.040 207.940,61.988 207.940 C 61.936 207.940,61.518 208.322,61.059 208.790 M15.556 216.019 C 16.262 216.056,17.368 216.056,18.014 216.019 C 18.659 215.982,18.081 215.952,16.730 215.952 C 15.378 215.953,14.850 215.983,15.556 216.019 M24.814 216.204 C 25.101 216.247,25.526 216.246,25.759 216.201 C 25.991 216.156,25.756 216.121,25.236 216.122 C 24.716 216.124,24.526 216.160,24.814 216.204 M30.009 216.390 C 30.243 216.436,30.626 216.436,30.860 216.390 C 31.094 216.345,30.903 216.309,30.435 216.309 C 29.967 216.309,29.776 216.345,30.009 216.390 M35.681 216.583 C 36.018 216.625,36.571 216.625,36.909 216.583 C 37.247 216.541,36.971 216.507,36.295 216.507 C 35.619 216.507,35.343 216.541,35.681 216.583 M360.259 216.583 C 360.598 216.625,361.109 216.624,361.393 216.581 C 361.677 216.538,361.399 216.504,360.775 216.505 C 360.151 216.506,359.919 216.541,360.259 216.583 M370.283 216.587 C 371.146 216.622,372.507 216.622,373.308 216.586 C 374.108 216.551,373.403 216.522,371.739 216.523 C 370.076 216.523,369.420 216.552,370.283 216.587 M391.257 216.583 C 391.595 216.625,392.148 216.625,392.486 216.583 C 392.824 216.541,392.547 216.507,391.871 216.507 C 391.196 216.507,390.919 216.541,391.257 216.583 M88.081 221.692 L 87.429 222.401 88.138 221.749 C 88.798 221.143,88.934 220.983,88.789 220.983 C 88.758 220.983,88.439 221.302,88.081 221.692 M81.096 230.151 C 80.322 230.931,79.731 231.569,79.783 231.569 C 79.835 231.569,80.511 230.931,81.285 230.151 C 82.060 229.371,82.651 228.733,82.599 228.733 C 82.547 228.733,81.871 229.371,81.096 230.151 M10.917 242.103 C 11.255 242.145,11.808 242.145,12.146 242.103 C 12.483 242.061,12.207 242.026,11.531 242.026 C 10.855 242.026,10.579 242.061,10.917 242.103 M351.560 242.108 C 358.032 242.135,368.622 242.135,375.095 242.108 C 381.567 242.080,376.271 242.058,363.327 242.058 C 350.383 242.058,345.087 242.080,351.560 242.108 M17.730 242.295 C 18.383 242.332,19.404 242.332,19.998 242.294 C 20.592 242.257,20.057 242.227,18.809 242.227 C 17.561 242.228,17.076 242.258,17.730 242.295 M28.125 242.484 C 28.675 242.522,29.525 242.522,30.016 242.483 C 30.506 242.444,30.057 242.413,29.017 242.413 C 27.977 242.414,27.576 242.445,28.125 242.484 M34.830 242.668 C 35.116 242.712,35.584 242.712,35.870 242.668 C 36.155 242.625,35.922 242.590,35.350 242.590 C 34.778 242.590,34.544 242.625,34.830 242.668 M38.894 242.856 C 39.128 242.901,39.511 242.901,39.745 242.856 C 39.979 242.810,39.787 242.774,39.319 242.774 C 38.852 242.774,38.660 242.810,38.894 242.856 M49.764 242.852 C 49.946 242.900,50.243 242.900,50.425 242.852 C 50.607 242.805,50.458 242.766,50.095 242.766 C 49.731 242.766,49.582 242.805,49.764 242.852 M43.910 243.051 C 44.512 243.089,45.448 243.088,45.990 243.050 C 46.532 243.012,46.040 242.981,44.896 242.982 C 43.752 242.982,43.309 243.013,43.910 243.051 M123.440 274.154 C 123.440 274.183,124.100 274.842,124.905 275.619 L 126.371 277.032 124.957 275.567 C 123.645 274.206,123.440 274.016,123.440 274.154 M133.983 280.855 C 134.322 280.897,134.833 280.897,135.117 280.853 C 135.401 280.810,135.123 280.776,134.499 280.777 C 133.875 280.778,133.643 280.813,133.983 280.855 M21.361 285.511 C 21.361 285.716,23.245 289.414,23.349 289.414 C 23.434 289.414,21.612 285.652,21.434 285.460 C 21.394 285.417,21.361 285.439,21.361 285.511 M239.036 317.013 C 239.442 317.429,239.817 317.769,239.869 317.769 C 239.921 317.769,239.631 317.429,239.225 317.013 C 238.819 316.597,238.444 316.257,238.392 316.257 C 238.340 316.257,238.630 316.597,239.036 317.013 M247.779 319.987 C 248.221 320.027,248.944 320.027,249.386 319.987 C 249.828 319.947,249.466 319.915,248.582 319.915 C 247.698 319.915,247.337 319.947,247.779 319.987 " stroke="none" fill="#91b6b0" fill-rule="evenodd"></path><path id="path4" d="M191.354 62.139 C 191.642 62.183,192.067 62.182,192.299 62.137 C 192.532 62.092,192.297 62.056,191.777 62.058 C 191.257 62.059,191.067 62.096,191.354 62.139 M13.376 216.013 C 13.612 216.058,13.952 216.056,14.133 216.009 C 14.313 215.962,14.121 215.925,13.705 215.927 C 13.289 215.929,13.141 215.967,13.376 216.013 M19.616 216.016 C 19.956 216.058,20.466 216.057,20.750 216.014 C 21.034 215.971,20.756 215.937,20.132 215.938 C 19.509 215.939,19.276 215.974,19.616 216.016 M37.945 216.583 C 38.280 216.624,38.876 216.625,39.268 216.584 C 39.660 216.543,39.386 216.509,38.658 216.508 C 37.930 216.507,37.609 216.541,37.945 216.583 M42.202 216.576 C 42.384 216.624,42.682 216.624,42.864 216.576 C 43.046 216.529,42.897 216.490,42.533 216.490 C 42.169 216.490,42.020 216.529,42.202 216.576 M9.499 242.096 C 9.681 242.144,9.979 242.144,10.161 242.096 C 10.343 242.049,10.194 242.010,9.830 242.010 C 9.466 242.010,9.317 242.049,9.499 242.096 M387.476 242.104 C 387.918 242.144,388.641 242.144,389.083 242.104 C 389.525 242.065,389.164 242.032,388.280 242.032 C 387.396 242.032,387.034 242.065,387.476 242.104 M15.454 242.288 C 15.688 242.333,16.070 242.333,16.304 242.288 C 16.538 242.243,16.347 242.206,15.879 242.206 C 15.411 242.206,15.220 242.243,15.454 242.288 M25.756 242.479 C 26.042 242.523,26.510 242.523,26.796 242.479 C 27.082 242.436,26.848 242.401,26.276 242.401 C 25.704 242.401,25.470 242.436,25.756 242.479 M33.507 242.663 C 33.689 242.711,33.986 242.711,34.168 242.663 C 34.350 242.616,34.201 242.577,33.837 242.577 C 33.474 242.577,33.325 242.616,33.507 242.663 M41.921 243.045 C 42.156 243.090,42.496 243.088,42.677 243.041 C 42.858 242.994,42.665 242.957,42.250 242.959 C 41.834 242.961,41.686 243.000,41.921 243.045 M24.197 290.999 C 24.197 291.202,24.759 292.250,24.868 292.250 C 24.920 292.250,24.822 291.973,24.650 291.635 C 24.299 290.945,24.197 290.801,24.197 290.999 M25.331 293.195 C 25.543 293.611,25.759 293.951,25.811 293.951 C 25.863 293.951,25.732 293.611,25.520 293.195 C 25.308 292.779,25.092 292.439,25.040 292.439 C 24.988 292.439,25.119 292.779,25.331 293.195 M258.117 316.682 L 257.561 317.297 258.176 316.742 C 258.748 316.224,258.877 316.068,258.731 316.068 C 258.698 316.068,258.422 316.345,258.117 316.682 " stroke="none" fill="#749791" fill-rule="evenodd"></path></g></svg>